<svg width="2vw" height="4vh" viewBox="0 0 65 70" fill="none" xmlns="http://www.w3.org/2000/svg">
<g clip-path="url(#clip0_213_250)">
<path d="M33.4199 25.5304L33.0716 25.3141C27.8924 22.0966 21.0856 23.6868 17.8681 28.866L5.15584 49.3288C1.93836 54.508 3.52862 61.3149 8.7078 64.5324L9.05607 64.7487C14.2352 67.9662 21.0421 66.3759 24.2596 61.1968L36.9718 40.7339C40.1893 35.5547 38.599 28.7479 33.4199 25.5304Z" stroke="currentColor" stroke-width="7" stroke-linejoin="round"/>
<path d="M55.3339 5.36635L54.9856 5.15C49.8065 1.93251 42.9996 3.52277 39.7821 8.70195L27.0699 29.1648C23.8524 34.344 25.4427 41.1508 30.6219 44.3683L30.9701 44.5847C36.1493 47.8021 42.9562 46.2119 46.1736 41.0327L58.8859 20.5699C62.1034 15.3907 60.5131 8.58384 55.3339 5.36635Z" stroke="currentColor" stroke-width="7" stroke-linejoin="round"/>
</g>
<defs>
<clipPath id="clip0_213_250">
<rect width="64.04" height="69.9" fill="currentColor"/>
</clipPath>
</defs>
</svg>
