<svg width="84" height="67" viewBox="0 0 84 67" fill="none" xmlns="http://www.w3.org/2000/svg">
<g clip-path="url(#clip0_286_284)">
<path d="M27.5 0C12.31 0 0 12.31 0 27.5C0 42.69 12.31 55 27.5 55C42.69 55 55 42.69 55 27.5C55 12.31 42.69 0 27.5 0ZM27.5 50C15.07 50 5 39.93 5 27.5C5 15.07 15.07 5 27.5 5C39.93 5 50 15.07 50 27.5C50 39.93 39.93 50 27.5 50Z" fill="white"/>
<path d="M50 43L81 64" stroke="white" stroke-width="6" stroke-miterlimit="10" stroke-linecap="round"/>
</g>
<defs>
<clipPath id="clip0_286_284">
<rect width="84" height="67" fill="white"/>
</clipPath>
</defs>
</svg>
