<svg width="148" height="196" viewBox="0 0 148 196" fill="none" xmlns="http://www.w3.org/2000/svg">
<g clip-path="url(#clip0_213_254)">
<path d="M14 58H133V182.6C133 187.79 128.79 192 123.6 192H22.16C17.66 192 14 188.35 14 183.84V58Z" stroke="#EF8018" stroke-width="8" stroke-linejoin="round"/>
<path d="M133.5 25H14.5C8.70101 25 4 29.701 4 35.5V47.5C4 53.299 8.70101 58 14.5 58H133.5C139.299 58 144 53.299 144 47.5V35.5C144 29.701 139.299 25 133.5 25Z" stroke="#EF8018" stroke-width="8" stroke-linejoin="round"/>
<path d="M54.91 4H95.01C102.18 4 108 9.82 108 16.99V25H41V17.91C41 10.23 47.23 4 54.91 4Z" stroke="#EF8018" stroke-width="8" stroke-linejoin="round"/>
<path d="M48 79V155" stroke="#EF8018" stroke-width="8" stroke-linecap="round" stroke-linejoin="round"/>
<path d="M74 80V156" stroke="#EF8018" stroke-width="8" stroke-linecap="round" stroke-linejoin="round"/>
<path d="M100 79V155" stroke="#EF8018" stroke-width="8" stroke-linecap="round" stroke-linejoin="round"/>
</g>
<defs>
<clipPath id="clip0_213_254">
<rect width="148" height="196" fill="white"/>
</clipPath>
</defs>
</svg>
