<svg width="486" height="678" viewBox="0 0 486 678" fill="none" xmlns="http://www.w3.org/2000/svg">
<path d="M384.372 164.955C384.926 165.143 385.2 165.767 384.964 166.304L380.308 176.901C378.981 179.923 377.415 182.835 375.625 185.609L369.068 195.773L361.008 206.498L349.682 219.272C346.317 223.068 342.687 226.62 338.82 229.902L333.707 234.24C330.445 237.009 326.98 239.527 323.34 241.774L311.208 249.265C309.037 250.605 306.728 251.704 304.32 252.542L287.183 258.506C285.506 259.089 283.78 259.517 282.025 259.785L272.58 261.224L260.497 263.066L248.016 263.194L235.535 263.322L227.989 257.006L199.529 228.587L188.21 219.113L209.678 192.481C211.298 190.471 213.062 188.582 214.956 186.829L224.881 177.642C229.908 172.989 235.553 169.056 241.656 165.954L260.267 156.496C264.044 154.577 268.043 153.136 272.173 152.207L288.563 148.518C290.802 148.014 293.084 147.738 295.377 147.695L311.595 147.39C317.091 147.287 322.579 147.824 327.948 148.99L336.93 150.942L353.993 154.648L384.372 164.955Z" fill="url(#paint0_linear_99_232)"/>
<path d="M101.33 37.0537C100.825 36.7431 100.161 36.9403 99.905 37.4772L95.0131 47.734C93.5958 50.7055 92.4164 53.7848 91.4861 56.9427L88.1052 68.4196L85.2577 81.4319L81.9459 105.754L81.2692 115.812L81.228 126.812L82.7174 138.174L85.7595 150.603L93.7723 171.464C94.3125 172.87 94.9614 174.232 95.7131 175.537L103.076 188.318L138.539 199.609L186.592 217.76L192.247 188.372C192.757 185.722 193.065 183.037 193.167 180.34L194.06 156.807L192.205 138.777L185.362 120.326L175.913 100.75C174.688 98.2126 173.153 95.8385 171.343 93.6821L160.46 80.7181C157.289 76.9416 153.734 73.5075 149.851 70.4713L142.036 64.3597L128.38 53.6814L101.33 37.0537Z" fill="url(#paint1_linear_99_232)"/>
<ellipse cx="73.0387" cy="388.472" rx="204.54" ry="205.202" transform="rotate(39.9292 73.0387 388.472)" fill="url(#paint2_linear_99_232)"/>
<path d="M226.88 523.022C204.796 551.9 184.387 564.502 150.828 578.396C117.269 592.291 80.6659 597.048 44.7486 592.183C8.83143 587.319 -25.1156 573.007 -53.6329 550.705C-82.1501 528.403 -104.218 498.91 -117.588 465.23C-130.957 431.55 -135.15 394.888 -129.74 358.981C-124.329 323.073 -109.509 289.203 -86.7881 260.823C-64.0675 232.443 -34.2595 210.568 -0.401772 197.426C33.456 184.284 70.1529 180.346 105.949 186.013L75.5773 191.816L43.5652 202.396C41.2312 203.167 38.9548 204.103 36.7532 205.197L22.786 212.133L8.10887 221.896C6.85423 222.731 5.66901 223.665 4.56476 224.691L-14.6532 242.535L-23.7239 253.372L-32.7946 264.209L-44.5812 279.195C-46.9118 282.158 -48.8609 285.402 -50.3825 288.852L-55.4233 300.278C-56.6677 303.099 -57.6375 306.034 -58.3191 309.041L-62.5641 327.768C-62.912 329.302 -63.0679 330.875 -63.0281 332.448L-62.5427 351.654C-62.4941 353.578 -62.1681 355.484 -61.5748 357.315L-58.9508 365.411C-58.5653 366.601 -58.0742 367.754 -57.4835 368.856L-51.2079 380.567L-48.8083 384.473C-48.0811 385.657 -47.193 386.734 -46.1694 387.673L-36.2948 396.735L-24.2687 406.006C-22.9971 406.986 -21.593 407.782 -20.0983 408.368L-16.1348 409.923L11.0865 417.964L35.4807 422.256L82.5174 433.495C85.5288 434.214 88.332 435.623 90.7063 437.61L97.5395 443.33C99.159 444.685 100.25 446.567 100.622 448.646L101.618 454.209C101.861 455.566 101.82 456.958 101.5 458.299L100.469 462.604C99.783 465.47 98.2097 468.047 95.9733 469.967L91.9711 473.403C90.4297 474.727 88.6187 475.699 86.664 476.252L81.8154 477.624L75.8638 479.309C74.6277 479.659 73.3466 479.823 72.0623 479.797L51.4391 479.383L33.9376 480.559L30.7089 481.467C29.6748 481.758 28.7215 482.283 27.9229 483.002L25.4226 485.251L24.2115 486.698C23.5166 487.528 23.0237 488.508 22.7717 489.561L22.7496 489.653C22.5363 490.545 22.6355 491.482 23.0305 492.309L24.2538 494.87L24.9629 496.354C25.7041 497.905 26.7701 499.279 28.0886 500.383L34.7211 505.934L41.3711 511.5C42.6822 512.598 44.1834 513.446 45.8001 514.002L71.2151 522.751C72.5819 523.221 74.0032 523.515 75.4444 523.626L109.725 526.263C111.282 526.383 112.848 526.329 114.393 526.101L145.411 521.537C146.9 521.318 148.367 520.97 149.795 520.498L176.84 511.547L197.014 503.356C198.383 502.8 199.827 502.449 201.299 502.316L205.87 501.9C207.938 501.712 210.021 501.987 211.97 502.704L214.346 503.578C217.295 504.663 219.947 506.428 222.087 508.729L222.742 509.434C225.203 512.081 226.626 515.528 226.748 519.14L226.88 523.022Z" fill="url(#paint3_radial_99_232)"/>
<ellipse cx="94.143" cy="263.602" rx="14.0577" ry="14.1033" transform="rotate(39.9292 94.143 263.602)" fill="white"/>
<ellipse cx="207.671" cy="316.325" rx="14.0578" ry="14.1033" transform="rotate(39.9292 207.671 316.325)" fill="white"/>
<path d="M196.389 373.97C187.754 392.432 172.154 406.728 153.021 413.715C133.888 420.701 112.789 419.805 94.3655 411.224C75.942 402.643 61.7032 387.08 54.7815 367.958C47.8598 348.837 48.8222 327.723 57.4569 309.261L126.923 341.616L196.389 373.97Z" fill="white"/>
<defs>
<linearGradient id="paint0_linear_99_232" x1="385.525" y1="165.634" x2="194.584" y2="236.33" gradientUnits="userSpaceOnUse">
<stop offset="0.0208333" stop-color="#7BD010"/>
<stop offset="0.572917" stop-color="#00A03A"/>
<stop offset="1" stop-color="#1B4A2C"/>
</linearGradient>
<linearGradient id="paint1_linear_99_232" x1="100.158" y1="36.5542" x2="168.205" y2="224.42" gradientUnits="userSpaceOnUse">
<stop offset="0.0208333" stop-color="#7BD010"/>
<stop offset="0.572917" stop-color="#00A03A"/>
<stop offset="1" stop-color="#1B4A2C"/>
</linearGradient>
<linearGradient id="paint2_linear_99_232" x1="444.866" y1="388.386" x2="-41.9098" y2="208.888" gradientUnits="userSpaceOnUse">
<stop stop-color="white"/>
<stop offset="0.439508" stop-color="#EA2040"/>
<stop offset="1" stop-color="#D00C2B"/>
</linearGradient>
<radialGradient id="paint3_radial_99_232" cx="0" cy="0" r="1" gradientUnits="userSpaceOnUse" gradientTransform="translate(-131.561 486.435) rotate(-19.0618) scale(183.025 703.402)">
<stop stop-color="#EA2040"/>
<stop offset="0.271198" stop-color="#FCC208" stop-opacity="0.6"/>
<stop offset="0.530404" stop-color="#FCC208" stop-opacity="0.75"/>
<stop offset="0.903232" stop-color="#FCC208"/>
</radialGradient>
</defs>
</svg>
