<svg width="311" height="428" viewBox="0 0 311 428" fill="none" xmlns="http://www.w3.org/2000/svg">
<path d="M231.984 18.9527C232.53 18.7416 233.14 19.0432 233.304 19.6055L235.113 25.8055C236.036 28.9707 236.705 32.2046 237.114 35.4762L238 42.5609L238.5 52.0609L238.218 61.945C238.073 67.0159 237.567 72.07 236.705 77.0691L236.593 77.724C235.865 81.9426 234.82 86.1002 233.467 90.1613L231.215 96.916C230.407 99.3387 229.337 101.666 228.023 103.855L222.375 113.269C221.46 114.794 220.407 116.231 219.229 117.563L215.25 122.061L209.5 128.561L202.75 134.311L196 140.061L189 140.061L160.5 137.561L150 137.561L149.572 114.437C149.524 111.856 149.665 109.276 149.993 106.716L150.686 101.307C151.558 94.5091 153.369 87.8656 156.069 81.5666L159.984 72.4319C161.655 68.5331 163.806 64.8581 166.386 61.4918L171.897 54.304C173.295 52.48 174.875 50.8025 176.612 49.2972L182.736 43.9893C186.898 40.3826 191.465 37.2724 196.345 34.7212L200 32.8109L211 27.0609L231.984 18.9527Z" fill="url(#paint0_linear_11_77)"/>
<path d="M19.8047 78.0615C19.2162 78.1476 18.8325 78.7251 18.9812 79.3009L20.5571 85.4056C21.3787 88.5882 22.4521 91.7003 23.7671 94.7127L26.591 101.182L30.9788 109.553L40.2772 124.285L44.5 130.061L49.5 136.061L55.5 141.561L62.8345 146.935L76.16 154.315C77.476 155.044 78.8467 155.67 80.2597 156.186L89.5 159.561L114 149.561L148.5 137.561L138.736 120.029C137.425 117.676 135.937 115.427 134.285 113.3L124.744 101.02L115.5 92.0612L103.343 85.143L90.364 79.3006C87.7979 78.1455 85.0984 77.3134 82.3273 76.8235L73.783 75.3128C68.9278 74.4544 63.9965 74.1041 59.0687 74.2675L54.1559 74.4304L41.8313 74.8391L19.8047 78.0615Z" fill="url(#paint1_linear_11_77)"/>
<circle cx="164.5" cy="282.061" r="145.5" fill="url(#paint2_linear_11_77)"/>
<path d="M309.851 285.206C310.99 310.959 305.61 327.099 293.648 349.926C281.686 372.754 263.891 391.999 242.078 405.7C220.264 419.401 195.212 427.068 169.473 427.92C143.735 428.772 118.231 422.779 95.5609 410.551C72.8906 398.322 53.8644 380.297 40.4212 358.31C26.9781 336.324 19.5986 311.163 19.0349 285.392C18.4712 259.621 24.7434 234.16 37.2123 211.606C49.6812 189.052 67.901 170.21 90.0149 157L76.0969 173.978L64.0343 193.383C62.7342 195.474 61.5843 197.656 60.5933 199.91L56.5757 209.05L53.2159 220.4C52.7869 221.85 52.476 223.331 52.2861 224.83L50.0337 242.619V252.639V262.66L50.3954 274.504C50.5108 278.284 51.1022 282.034 52.1556 285.666L53.7797 291.265C54.6406 294.234 55.7862 297.112 57.2004 299.86L62.4976 310.152C63.2186 311.553 64.1111 312.859 65.1545 314.04L73.1754 323.116C74.449 324.557 75.9239 325.807 77.5544 326.827L81.5141 329.304C82.5723 329.966 83.6874 330.532 84.8461 330.996L93.1154 334.307L95.64 335.15C96.9539 335.588 98.3221 335.842 99.7058 335.905L108.632 336.311L118.735 335.907C120.334 335.843 121.917 335.553 123.435 335.047L125.651 334.307L144.171 326.291L159.437 317.523L189.02 302.827C191.785 301.453 194.831 300.738 197.918 300.738H201.976C204.083 300.738 206.123 301.478 207.741 302.827L209.638 304.409C210.697 305.293 211.562 306.386 212.178 307.62L212.715 308.694C214.036 311.339 214.486 314.334 214 317.25L213.754 318.733C213.419 320.741 212.651 322.652 211.502 324.333L209.992 326.541L207.832 329.701C207.107 330.762 206.229 331.709 205.226 332.513L194.225 341.322L185.215 349.926L184.139 351.496C183.53 352.384 183.134 353.4 182.982 354.466L182.803 355.72C182.743 356.141 182.713 356.566 182.713 356.992V357.652C182.713 358.445 182.897 359.227 183.252 359.937C183.551 360.535 184.046 361.013 184.655 361.29L186.467 362.115L186.852 362.29C188.412 363 190.107 363.367 191.821 363.367H197.228H202.658C204.363 363.367 206.054 363.056 207.647 362.448L224.229 356.125C225.578 355.611 226.855 354.927 228.031 354.09L246.871 340.68C248.143 339.775 249.309 338.73 250.35 337.566L264.294 321.966C265.298 320.843 266.202 319.635 266.997 318.356L277.315 301.74L284.275 288.679C284.971 287.373 285.856 286.178 286.901 285.131L288.237 283.794C289.615 282.415 291.282 281.359 293.118 280.702L293.841 280.444C296.14 279.622 298.599 279.352 301.021 279.655C303.81 280.004 306.381 281.347 308.26 283.437L309.851 285.206Z" fill="url(#paint3_radial_11_77)"/>
<circle cx="119" cy="204.561" r="10" fill="white"/>
<circle cx="205" cy="181.561" r="10" fill="white"/>
<path d="M225.165 218.039C228.884 232.007 226.902 246.88 219.655 259.386C212.408 271.892 200.49 281.007 186.522 284.726C172.554 288.445 157.681 286.463 145.175 279.216C132.669 271.969 123.553 260.05 119.835 246.083L172.5 232.061L225.165 218.039Z" fill="white"/>
<defs>
<linearGradient id="paint0_linear_11_77" x1="233.216" y1="18.6837" x2="161.687" y2="144.22" gradientUnits="userSpaceOnUse">
<stop offset="0.0208333" stop-color="#7BD010"/>
<stop offset="0.572917" stop-color="#00A03A"/>
<stop offset="1" stop-color="#1B4A2C"/>
</linearGradient>
<linearGradient id="paint1_linear_11_77" x1="18.6168" y1="78.3702" x2="141.31" y2="149.895" gradientUnits="userSpaceOnUse">
<stop offset="0.0208333" stop-color="#7BD010"/>
<stop offset="0.572917" stop-color="#00A03A"/>
<stop offset="1" stop-color="#1B4A2C"/>
</linearGradient>
<linearGradient id="paint2_linear_11_77" x1="429" y1="282" x2="83" y2="154" gradientUnits="userSpaceOnUse">
<stop stop-color="white"/>
<stop offset="0.439508" stop-color="#EA2040"/>
<stop offset="1" stop-color="#D00C2B"/>
</linearGradient>
<radialGradient id="paint3_radial_11_77" cx="0" cy="0" r="1" gradientUnits="userSpaceOnUse" gradientTransform="translate(97.6201 428.44) rotate(-58.9093) scale(129.887 499.936)">
<stop stop-color="#EA2040"/>
<stop offset="0.271198" stop-color="#FCC208" stop-opacity="0.6"/>
<stop offset="0.530404" stop-color="#FCC208" stop-opacity="0.75"/>
<stop offset="0.903232" stop-color="#FCC208"/>
</radialGradient>
</defs>
</svg>
